<svg xmlns="http://www.w3.org/2000/svg" viewBox="0 0 720 720" width="720" height="720" role="img" aria-label="A cream bunny eating a carrot beside a plum magician hat" id="art">
<defs><clipPath id="hat-opening"><path d="M0 0H720V445H0Z M0 445H412V720H0Z"/></clipPath></defs>
<rect width="720" height="720" fill="#f7ece4"/>
<circle cx="356" cy="331" r="247" fill="#f0ded9"/>
<ellipse cx="362" cy="595" rx="282" ry="34" fill="#e8d4d0"/>
<ellipse id="bunny-shadow" cx="215" cy="581" rx="72" ry="12" fill="#b699a3" opacity=".28"/>
<ellipse cx="520" cy="585" rx="112" ry="15" fill="#b699a3" opacity=".3"/>
<!-- The back lip is behind the rabbit; the front shell below masks the descent. -->
<g id="hat-back" stroke="#4d3b55" stroke-width="4"><ellipse cx="520" cy="444" rx="113" ry="32" fill="#78607f"/><ellipse cx="520" cy="442" rx="87" ry="21" fill="#352c40"/></g>
<g clip-path="url(#hat-opening)" data-layout-allow-overflow="true">
<g id="bunny-position" transform="translate(215 575)"><g id="bunny-pose" transform="scale(.82)" stroke="#4d3b55" stroke-width="4" stroke-linejoin="round" stroke-linecap="round">
<!-- Tail, haunch and feet form the anchored sitting silhouette. -->
<circle cx="-62" cy="-48" r="25" fill="#fff9e9"/>
<path d="M-50-137C-73-107-77-57-57-23C-38 5 36 5 58-18C81-44 56-111 26-137Z" fill="#fff9e9"/>
<path d="M-42-104C-50-63-40-20 1-14C22-11 38-18 44-28C31-16-7-17-22-43C-33-62-34-84-31-109Z" fill="#eadcd1" stroke="none"/>
<ellipse cx="-32" cy="-8" rx="37" ry="14" fill="#fff9e9"/>
<ellipse cx="38" cy="-8" rx="37" ry="14" fill="#fff9e9"/>
<path d="M-31-7v6m13-7v6M39-7v6m13-7v6" stroke="#b9a6a1" stroke-width="2.3"/>
<g id="bunny-head">
<g id="ear-back"><path d="M-27-198C-58-226-67-297-47-306C-23-317-3-247-7-207Z" fill="#fff9e9"/><path d="M-27-216C-44-238-53-283-46-290C-34-297-22-244-20-219Z" fill="#eeb8b1" stroke="none"/></g>
<g id="ear-front"><path d="M0-207C-7-253 12-316 32-308C55-297 37-240 19-202Z" fill="#fff9e9"/><path d="M10-220C11-254 22-293 30-292C41-288 26-245 19-223Z" fill="#eeb8b1" stroke="none"/></g>
<path d="M-50-181C-48-215-22-229 10-218C36-211 49-191 50-169C71-164 74-145 57-135C28-119-21-125-42-141C-53-149-58-166-50-181Z" fill="#fff9e9"/>
<ellipse cx="-4" cy="-145" rx="16" ry="10" fill="#f0c8be" stroke="none"/>
<path id="eye" d="M18-181Q27-188 33-179" fill="none" stroke-width="4.5"/>
<path d="M55-167Q65-168 65-162Q62-154 55-158Z" fill="#b98589" stroke-width="2.5"/>
<path d="M57-157L55-148" fill="none" stroke-width="2.5"/>
<g id="mouth"><ellipse cx="53" cy="-145" rx="5" ry="2.5" fill="#6a4953" stroke="none"/><path d="M48-145Q52-139 58-143" fill="none" stroke-width="2.4"/></g>
<path d="M-26-153L-42-156M-26-147L-44-145" fill="none" stroke="#ad9995" stroke-width="1.8"/>
</g>
<g id="snack">
<g id="carrot" transform="rotate(-25 60 -136)"><path d="M47-142Q53-148 57-142Q62-149 65-141L119-115Q124-110 116-101Q113-97 106-103Z" fill="#ea8849"/><path d="M76-137L73-130M96-126L92-119M107-119L103-112" fill="none" stroke="#ba6542" stroke-width="2.4"/><path d="M118-111Q124-137 137-140Q141-125 125-109Q149-127 155-117Q142-103 125-106Q148-99 144-89Q128-92 118-103Z" fill="#648b69" stroke-width="3"/></g>
<g transform="translate(0 -22)"><path d="M18-116Q31-133 45-122L66-115Q79-113 77-103Q74-92 61-95L31-99Q14-100 18-116Z" fill="#fff9e9"/>
<path d="M61-113L59-103M69-110L66-101" fill="none" stroke="#b9a6a1" stroke-width="2"/></g>
</g>
</g></g></g>
<g id="hat-front" stroke="#4d3b55" stroke-width="4" stroke-linejoin="round">
<path d="M431 446Q520 474 609 446L593 562Q520 595 447 562Z" fill="#594660"/>
<path d="M449 469L463 548Q484 559 495 556L481 476Z" fill="#75607d" stroke="none"/>
<path d="M441 520Q520 544 599 520L595 546Q520 573 445 546Z" fill="#bc8793"/>
<path d="M494 536L518 537 516 558 492 555Z" fill="#e8c88d" stroke-width="3"/><path d="M500 542L512 543 511 551 499 550Z" fill="#75586d" stroke="none"/>
<path d="M409 444Q520 474 632 444L633 456Q520 496 407 455Z" fill="#78607f"/>
</g></svg>
